<svg width="32" height="31" viewBox="0 0 32 31" fill="none" xmlns="http://www.w3.org/2000/svg">
<path d="M7.49967 7.49998L13.8747 13.875M7.49967 7.49998H3.24967L1.83301 3.24998L3.24967 1.83331L7.49967 3.24998V7.49998ZM26.2832 2.88308L22.5608 6.60554C21.9998 7.16656 21.7192 7.44707 21.6141 7.77054C21.5217 8.05507 21.5217 8.36156 21.6141 8.64609C21.7192 8.96955 21.9998 9.25006 22.5608 9.81109L22.8969 10.1472C23.4579 10.7082 23.7384 10.9887 24.0619 11.0938C24.3464 11.1863 24.6529 11.1863 24.9374 11.0938C25.2609 10.9887 25.5414 10.7082 26.1024 10.1472L29.5845 6.66516C29.9595 7.57773 30.1663 8.5772 30.1663 9.62498C30.1663 13.9282 26.6779 17.4166 22.3747 17.4166C21.8559 17.4166 21.3489 17.3659 20.8585 17.2692C20.1698 17.1334 19.8254 17.0655 19.6167 17.0863C19.3948 17.1084 19.2854 17.1417 19.0887 17.2469C18.9038 17.3459 18.7182 17.5314 18.3471 17.9025L8.20801 28.0416C7.0344 29.2152 5.13161 29.2152 3.95801 28.0416C2.7844 26.868 2.7844 24.9652 3.95801 23.7916L14.0971 13.6525C14.4682 13.2814 14.6538 13.0959 14.7527 12.9109C14.858 12.7143 14.8913 12.6049 14.9134 12.383C14.9342 12.1742 14.8663 11.8299 14.7304 11.1412C14.6337 10.6507 14.583 10.1438 14.583 9.62498C14.583 5.32176 18.0715 1.83331 22.3747 1.83331C23.7991 1.83331 25.1343 2.21556 26.2832 2.88308ZM15.9997 20.2499L23.7913 28.0415C24.9649 29.2151 26.8677 29.2151 28.0413 28.0415C29.2149 26.8679 29.2149 24.9651 28.0413 23.7915L21.6314 17.3817C21.1776 17.3387 20.7352 17.2569 20.3075 17.1395C19.7563 16.9882 19.1517 17.098 18.7475 17.5021L15.9997 20.2499Z" stroke="#183958" stroke-width="3" stroke-linecap="round" stroke-linejoin="round"/>
</svg>
