<svg width="52" height="43" viewBox="0 0 52 43" fill="none" xmlns="http://www.w3.org/2000/svg">
<g clip-path="url(#clip0_72_200)">
<path d="M33.4208 18.1527C33.7993 19.039 34.162 19.9411 34.5563 20.8748C34.8087 20.8748 35.0453 20.8748 35.2818 20.8748C38.5309 20.8748 41.7956 20.8907 45.0447 20.859C45.7859 20.859 46.2591 21.1281 46.6061 21.8086C48.3252 25.2271 49.9024 28.7089 50.9907 32.3964C51.5742 34.343 52.0316 36.3055 52.0001 38.3471C51.9843 38.9168 51.8897 39.5024 51.7635 40.0563C51.2115 42.5885 48.6249 43.6647 46.3537 42.6043C45.1866 42.0662 44.2087 41.2749 43.3886 40.3095C42.3792 39.1384 41.4013 37.9356 40.5181 36.6695C37.9 32.9186 35.8496 28.8355 33.8939 24.7048C31.9697 20.6216 30.2348 16.4751 28.6734 12.2337C27.8217 9.92306 27.0647 7.58077 26.2603 5.25431C26.1972 5.06439 26.1341 4.85865 26.0237 4.55795C25.7714 5.34926 25.5348 6.02979 25.2982 6.72615C23.3898 12.5344 21.1187 18.2002 18.5636 23.7552C16.6868 27.8226 14.668 31.8266 12.2233 35.6091C11.0246 37.4608 9.74711 39.265 8.13838 40.8001C7.41287 41.4965 6.64005 42.1137 5.72528 42.5568C3.09137 43.8071 0.41014 42.272 0.0789301 39.3758C-0.141877 37.4608 0.173562 35.6091 0.630947 33.7733C1.40377 30.6871 2.58666 27.7434 3.92728 24.8631C4.40043 23.8344 4.92091 22.8373 5.39406 21.8086C5.7095 21.1281 6.19843 20.859 6.95548 20.859C10.1572 20.8748 13.3589 20.8748 16.5606 20.8748C16.8287 20.8748 17.0811 20.8748 17.428 20.8748C17.8066 20.0044 18.1851 19.1181 18.6267 18.1211C18.2482 18.1211 17.9643 18.1052 17.6962 18.1052C14.179 18.1052 10.6619 18.1052 7.14475 18.1052C6.87662 18.1052 6.6085 18.1211 6.35615 18.0736C5.80413 17.9628 5.45715 17.488 5.47292 16.9341C5.4887 16.4277 5.83568 16.0003 6.37192 15.8896C6.59273 15.8421 6.84508 15.8579 7.08166 15.8579C10.9458 15.8579 14.7941 15.8579 18.6582 15.8579C18.9421 15.8579 19.226 15.8579 19.5888 15.8579C19.8885 15.0349 20.1881 14.2278 20.4878 13.4207C20.7717 12.6927 21.0556 11.9488 21.3395 11.2208C21.9703 9.44827 22.6328 7.69155 23.2163 5.90318C23.7526 4.2889 24.1942 2.64297 24.6673 1.02869C24.8881 0.269029 25.2194 0.0316344 25.9449 0.0158081C26.765 0.0158081 27.0962 0.269029 27.317 1.10782C28.2476 4.54212 29.3516 7.91312 30.6449 11.2366C30.9288 11.9805 31.2285 12.7085 31.5124 13.4523C31.8278 14.2595 32.159 15.0824 32.4744 15.8896C32.8056 16.6176 33.1053 17.3772 33.4208 18.1527ZM35.6288 23.1063C35.7235 23.3437 35.755 23.4862 35.8339 23.6286C37.1745 26.24 38.4678 28.8671 39.8715 31.4468C41.149 33.8049 42.6158 36.0522 44.3507 38.0938C45.1551 39.0276 46.0067 39.9297 47.1265 40.5153C48.4198 41.1958 49.445 40.6419 49.7289 39.2017C49.9813 37.8881 49.7447 36.6378 49.4766 35.3875C48.7984 32.2539 47.6312 29.2786 46.3222 26.3507C45.8333 25.2587 45.297 24.1825 44.8081 23.1222C41.7168 23.1063 38.7201 23.1063 35.6288 23.1063ZM7.16052 23.1063C6.35615 24.9264 5.50447 26.7147 4.76319 28.5664C3.54875 31.5576 2.41317 34.5804 2.22391 37.8406C2.19237 38.4578 2.27123 39.1067 2.44472 39.6923C2.72861 40.6735 3.62761 41.0375 4.57393 40.6419C4.95245 40.4836 5.31521 40.262 5.66219 40.0088C7.16052 38.901 8.28032 37.4291 9.33704 35.9256C12.0814 32.0007 14.2421 27.7434 16.2767 23.4229C16.324 23.3437 16.3082 23.233 16.324 23.1063C13.28 23.1063 10.2991 23.1063 7.16052 23.1063Z" fill="#183958"/>
<path d="M21.3397 11.205C21.0558 11.933 20.7719 12.6768 20.488 13.4049C15.9299 13.4049 11.3718 13.4049 6.79799 13.4049C6.54564 13.4049 6.26175 13.389 6.04094 13.2782C5.63087 13.0883 5.39429 12.5502 5.45738 12.1704C5.53624 11.6956 5.96208 11.2841 6.48255 11.2208C6.68759 11.1892 6.9084 11.205 7.11343 11.205C11.845 11.205 16.5924 11.205 21.3397 11.205Z" fill="#2DA9E0"/>
<path d="M31.5276 13.4207C31.2437 12.6769 30.9441 11.9489 30.6602 11.205C35.4233 11.205 40.2022 11.205 44.9653 11.205C45.2965 11.205 45.6435 11.2367 45.9589 11.3633C46.4005 11.5532 46.6371 12.1071 46.5267 12.5503C46.4321 12.9776 45.9747 13.3732 45.5173 13.4049C45.3123 13.4207 45.0915 13.4049 44.8864 13.4049C40.4387 13.4207 35.9753 13.4207 31.5276 13.4207Z" fill="#93C01F"/>
<path d="M33.4209 18.1527C33.1055 17.393 32.79 16.6334 32.4746 15.8737C32.7427 15.8579 32.9951 15.8262 33.2632 15.8262C37.1589 15.8262 41.0703 15.8262 44.966 15.8262C45.1237 15.8262 45.2814 15.8104 45.4391 15.8262C46.07 15.8896 46.5116 16.3485 46.5432 16.9341C46.5747 17.4564 46.2277 17.9628 45.518 18.1211C45.3129 18.1685 45.1079 18.1369 44.8871 18.1369C41.0703 18.1369 37.2535 18.1369 33.4209 18.1527Z" fill="#FABD21"/>
</g>
<defs>
<clipPath id="clip0_72_200">
<rect width="52" height="43" fill="white"/>
</clipPath>
</defs>
</svg>
