<?xml version="1.0" encoding="UTF-8" standalone="no"?>
<!-- Generator: Adobe Illustrator 21.1.0, SVG Export Plug-In . SVG Version: 6.00 Build 0)  -->

<svg
   xmlns:dc="http://purl.org/dc/elements/1.1/"
   xmlns:cc="http://creativecommons.org/ns#"
   xmlns:rdf="http://www.w3.org/1999/02/22-rdf-syntax-ns#"
   xmlns:svg="http://www.w3.org/2000/svg"
   xmlns="http://www.w3.org/2000/svg"
   xmlns:sodipodi="http://sodipodi.sourceforge.net/DTD/sodipodi-0.dtd"
   xmlns:inkscape="http://www.inkscape.org/namespaces/inkscape"
   version="1.1"
   id="Layer_1"
   x="0px"
   y="0px"
   viewBox="0 0 344.55948 338.82251"
   xml:space="preserve"
   sodipodi:docname="logo2.svg"
   width="344.55948"
   height="338.82251"
   inkscape:version="0.92.5 (2060ec1f9f, 2020-04-08)"><metadata
   id="metadata91"><rdf:RDF><cc:Work
       rdf:about=""><dc:format>image/svg+xml</dc:format><dc:type
         rdf:resource="http://purl.org/dc/dcmitype/StillImage" /><dc:title></dc:title></cc:Work></rdf:RDF></metadata><defs
   id="defs89" /><sodipodi:namedview
   pagecolor="#ffffff"
   bordercolor="#666666"
   borderopacity="1"
   objecttolerance="10"
   gridtolerance="10"
   guidetolerance="10"
   inkscape:pageopacity="0"
   inkscape:pageshadow="2"
   inkscape:window-width="1384"
   inkscape:window-height="836"
   id="namedview87"
   showgrid="false"
   fit-margin-top="41"
   fit-margin-left="41"
   fit-margin-bottom="41"
   fit-margin-right="41"
   inkscape:zoom="1.0163399"
   inkscape:cx="187.0482"
   inkscape:cy="235.53878"
   inkscape:window-x="56"
   inkscape:window-y="27"
   inkscape:window-maximized="1"
   inkscape:current-layer="Layer_1" />
<style
   type="text/css"
   id="style10">
	.st0{fill:#DE0A14;}
	.st1{fill:none;stroke:#E30613;stroke-width:9.0094;stroke-linecap:round;stroke-linejoin:round;}
	.st2{fill:none;stroke:#E30613;stroke-width:15.0225;stroke-linecap:round;stroke-linejoin:round;}
	.st3{fill:#050606;}
</style>

<g
   id="g26"
   transform="translate(-316.95176,-45.28875)">
	<polyline
   class="st1"
   points="614.9,136.4 572.9,171.2 572.9,267.3 556.6,267.3 556.6,186.2 523.6,199.7 523.6,267.3 501.1,223.7    486.1,238.7 445.5,169.7 362.5,260.1  "
   id="polyline20"
   style="fill:none;stroke:#e30613;stroke-width:9.00940037;stroke-linecap:round;stroke-linejoin:round" />
	<path
   class="st2"
   d="M 582.4,134.4 C 560.3,109.5 528,93.8 492.1,93.8 c -66.8,0 -120.9,54.1 -120.9,120.9"
   id="path22"
   inkscape:connector-curvature="0"
   style="fill:none;stroke:#e30613;stroke-width:15.02250004;stroke-linecap:round;stroke-linejoin:round" />
	<path
   class="st2"
   d="m 386.1,272.9 c 20.6,37.4 60.3,62.7 106,62.7 66.8,0 120.9,-54.1 120.9,-120.9 0,-16.7 -3.4,-32.6 -9.5,-47.1"
   id="path24"
   inkscape:connector-curvature="0"
   style="fill:none;stroke:#e30613;stroke-width:15.02250004;stroke-linecap:round;stroke-linejoin:round" />
</g>
<g
   id="g34"
   transform="translate(-316.95176,-45.28875)">
	<polygon
   class="st0"
   points="602.7,104.8 602.7,108.1 596.4,108.1 596.4,104.8 597.4,104.8 597.4,97.4 596.4,97.4 596.4,94 602.7,94 602.7,97.4 601.8,97.4 601.8,104.8 "
   id="polygon28"
   style="fill:#de0a14" />
	<polygon
   class="st0"
   points="609.8,98.8 608.9,98.8 606.5,101.2 609.5,105.3 610.1,105.3 610.1,108.1 604,108.1 604,105.3 604.7,105.3 602.1,101.9 602,101.8 605.1,98.8 604,98.8 604,96 609.8,96 "
   id="polygon30"
   style="fill:#de0a14" />
	<path
   class="st0"
   d="m 602.3,90.4 c 0,1.5 -1.3,2.7 -2.9,2.7 -1.6,0 -2.9,-1.2 -2.9,-2.7 0,-1.5 1.3,-2.7 2.9,-2.7 1.5,0 2.9,1.2 2.9,2.7"
   id="path32"
   inkscape:connector-curvature="0"
   style="fill:#de0a14" />
</g>

</svg>